<svg width="225" height="51" viewBox="0 0 225 51" fill="none" xmlns="http://www.w3.org/2000/svg">
<path d="M130.03 15.1353C132.037 6.86315 127.143 0.0178595 115.155 0.0178595H89.1703L79.435 40.4755L85.0861 50.4274H103.571C115.683 50.4274 125.066 44.6297 127.478 34.5514C128.693 29.3858 127.284 25.7735 124.115 23.9674V23.8409C127.12 21.8438 129.244 18.7188 130.03 15.1353ZM114.186 34.2263C113.693 36.3394 112.303 38.5068 106.546 38.5068H94.7509L96.8107 29.8373H108.553C114.239 29.8193 114.662 32.0408 114.116 34.2263H114.186ZM116.545 15.4062C116.123 17.0318 114.908 19.0185 109.944 19.0185H99.3809L101.141 11.9745H111.704C116.721 11.9384 116.968 13.6001 116.545 15.4062Z" fill="#14A0FF"/>
<path d="M146.385 30.903H170.046L172.739 18.9824H149.237L151.068 11.9384H174.341L177.035 0.0178595H138.833L126.721 50.4093H169.993L172.827 38.4888H144.642L146.385 30.903Z" fill="#14A0FF"/>
<path d="M180.344 0.0178595L177.633 11.9384H191.77L182.492 50.4093H197.333L206.628 11.9384H221.768L224.673 0.0178595H180.344Z" fill="#14A0FF"/>
<path d="M15.6361 50.4093H0.672232L7.15071 23.4978L8.64709 19.4339L4.68607 23.4978L0.284932 28.0673L0.108887 14.6296L15.6361 0.0178595H27.7304L15.6361 50.4093Z" fill="white"/>
<path d="M69.6645 29.5303L64.8936 21.2401L88.0436 0.0178595H66.478L57.6758 8.68736L27.8184 36.7729L13.4883 50.4093H33.892L49.2256 36.3756L54.3837 45.4063C56.1442 47.682 58.6264 50.4455 69.1539 50.4455H81.4771L69.6821 29.5122L69.6645 29.5303Z" fill="white"/>
<path d="M56.0209 5.90589V5.79753C54.7001 3.90698 52.9376 2.38704 50.8952 1.3772C48.8527 0.367356 46.5958 -0.100055 44.3315 0.0178595H28.3994L40.2825 20.7524L56.0209 5.90589Z" fill="white"/>
</svg>
